{
  "accessors": [
    {
      "bufferView": 2,
      "componentType": 5126,
      "count": 360,
      "max": [
        2.002880096435547,
        2.002880096435547,
        2.002880096435547
      ],
      "min": [
        -2.002880096435547,
        -2.002880096435547,
        -2.002880096435547
      ],
      "type": "VEC3"
    },
    {
      "bufferView": 2,
      "byteOffset": 4320,
      "componentType": 5126,
      "count": 360,
      "max": [
        1.0,
        1.0,
        1.0
      ],
      "min": [
        -1.0,
        -1.0,
        -1.0
      ],
      "type": "VEC3"
    },
    {
      "bufferView": 3,
      "componentType": 5126,
      "count": 360,
      "max": [
        1.0,
        1.0,
        0.9912639856338501,
        1.0
      ],
      "min": [
        -0.9912660121917725,
        -0.9912678599357605,
        -1.0,
        1.0
      ],
      "type": "VEC4"
    },
    {
      "bufferView": 1,
      "componentType": 5126,
      "count": 360,
      "max": [
        2.0738000869750977,
        2.0872700214385986
      ],
      "min": [
        -1.0802500247955322,
        -1.0872700214385986
      ],
      "type": "VEC2"
    },
    {
      "bufferView": 0,
      "componentType": 5125,
      "count": 816,
      "type": "SCALAR"
    },
    {
      "bufferView": 2,
      "byteOffset": 8640,
      "componentType": 5126,
      "count": 216,
      "max": [
        2.002880096435547,
        2.002880096435547,
        2.002880096435547
      ],
      "min": [
        -2.002880096435547,
        -2.002880096435547,
        -2.002880096435547
      ],
      "type": "VEC3"
    },
    {
      "bufferView": 2,
      "byteOffset": 11232,
      "componentType": 5126,
      "count": 216,
      "max": [
        1.0,
        1.0,
        1.0
      ],
      "min": [
        -1.0,
        -1.0,
        -1.0
      ],
      "type": "VEC3"
    },
    {
      "bufferView": 1,
      "byteOffset": 2880,
      "componentType": 5126,
      "count": 216,
      "max": [
        2.0738000869750977,
        2.0872700214385986
      ],
      "min": [
        -1.0802500247955322,
        -1.0872700214385986
      ],
      "type": "VEC2"
    },
    {
      "bufferView": 0,
      "byteOffset": 3264,
      "componentType": 5125,
      "count": 468,
      "type": "SCALAR"
    },
    {
      "bufferView": 2,
      "byteOffset": 13824,
      "componentType": 5126,
      "count": 3088,
      "max": [
        2.088200092315674,
        2.088200092315674,
        2.088200092315674
      ],
      "min": [
        -2.088200092315674,
        -2.088200092315674,
        -2.088200092315674
      ],
      "type": "VEC3"
    },
    {
      "bufferView": 2,
      "byteOffset": 50880,
      "componentType": 5126,
      "count": 3088,
      "max": [
        1.0,
        1.0,
        1.0
      ],
      "min": [
        -1.0,
        -1.0,
        -1.0
      ],
      "type": "VEC3"
    },
    {
      "bufferView": 3,
      "byteOffset": 5760,
      "componentType": 5126,
      "count": 3088,
      "max": [
        1.0,
        1.0,
        0.9845349192619324,
        1.0
      ],
      "min": [
        -1.0,
        -1.0,
        -0.9957977533340454,
        1.0
      ],
      "type": "VEC4"
    },
    {
      "bufferView": 1,
      "byteOffset": 4608,
      "componentType": 5126,
      "count": 3088,
      "max": [
        1.9881800413131714,
        1.9233700037002563
      ],
      "min": [
        -0.9881799817085266,
        -0.9559400081634521
      ],
      "type": "VEC2"
    },
    {
      "bufferView": 0,
      "byteOffset": 5136,
      "componentType": 5125,
      "count": 14328,
      "type": "SCALAR"
    },
    {
      "bufferView": 2,
      "byteOffset": 87936,
      "componentType": 5126,
      "count": 1734,
      "max": [
        2.026099920272827,
        2.026099920272827,
        2.026099920272827
      ],
      "min": [
        -2.026099920272827,
        -2.026099920272827,
        -2.026099920272827
      ],
      "type": "VEC3"
    },
    {
      "bufferView": 2,
      "byteOffset": 108744,
      "componentType": 5126,
      "count": 1734,
      "max": [
        1.0,
        1.0,
        1.0
      ],
      "min": [
        -1.0,
        -1.0,
        -1.0
      ],
      "type": "VEC3"
    },
    {
      "bufferView": 1,
      "byteOffset": 29312,
      "componentType": 5126,
      "count": 1734,
      "max": [
        1.0,
        1.0
      ],
      "min": [
        0.0,
        0.0
      ],
      "type": "VEC2"
    },
    {
      "bufferView": 0,
      "byteOffset": 62448,
      "componentType": 5125,
      "count": 9792,
      "type": "SCALAR"
    },
    {
      "bufferView": 2,
      "byteOffset": 129552,
      "componentType": 5126,
      "count": 2304,
      "max": [
        2.027590036392212,
        2.027590036392212,
        2.027590036392212
      ],
      "min": [
        -2.027590036392212,
        -2.027590036392212,
        -2.027590036392212
      ],
      "type": "VEC3"
    },
    {
      "bufferView": 2,
      "byteOffset": 157200,
      "componentType": 5126,
      "count": 2304,
      "max": [
        0.9821934700012207,
        0.9821879863739014,
        0.9821879863739014
      ],
      "min": [
        -0.9821879863739014,
        -0.9821879863739014,
        -0.9821879863739014
      ],
      "type": "VEC3"
    },
    {
      "bufferView": 1,
      "byteOffset": 43184,
      "componentType": 5126,
      "count": 2304,
      "max": [
        1.0,
        1.0
      ],
      "min": [
        0.0,
        0.0
      ],
      "type": "VEC2"
    },
    {
      "bufferView": 0,
      "byteOffset": 101616,
      "componentType": 5125,
      "count": 13824,
      "type": "SCALAR"
    },
    {
      "bufferView": 2,
      "byteOffset": 184848,
      "componentType": 5126,
      "count": 384,
      "max": [
        2.0045900344848633,
        2.0045900344848633,
        2.0045900344848633
      ],
      "min": [
        -2.0045900344848633,
        -2.0045900344848633,
        -2.0045900344848633
      ],
      "type": "VEC3"
    },
    {
      "bufferView": 2,
      "byteOffset": 189456,
      "componentType": 5126,
      "count": 384,
      "max": [
        1.0,
        1.0,
        1.0
      ],
      "min": [
        -1.0,
        -1.0,
        -1.0
      ],
      "type": "VEC3"
    },
    {
      "bufferView": 1,
      "byteOffset": 61616,
      "componentType": 5126,
      "count": 384,
      "max": [
        1.0,
        1.0
      ],
      "min": [
        0.0,
        0.0
      ],
      "type": "VEC2"
    },
    {
      "bufferView": 0,
      "byteOffset": 156912,
      "componentType": 5125,
      "count": 1152,
      "type": "SCALAR"
    },
    {
      "bufferView": 2,
      "byteOffset": 194064,
      "componentType": 5126,
      "count": 2488,
      "max": [
        2.3225600719451904,
        2.323740005493164,
        2.3225901126861572
      ],
      "min": [
        -2.3225600719451904,
        -2.323740005493164,
        -2.3225901126861572
      ],
      "type": "VEC3"
    },
    {
      "bufferView": 2,
      "byteOffset": 223920,
      "componentType": 5126,
      "count": 2488,
      "max": [
        1.0,
        1.0,
        1.0
      ],
      "min": [
        -1.0,
        -1.0,
        -1.0
      ],
      "type": "VEC3"
    },
    {
      "bufferView": 3,
      "byteOffset": 55168,
      "componentType": 5126,
      "count": 2488,
      "max": [
        1.0,
        1.0,
        0.916887640953064,
        1.0
      ],
      "min": [
        -0.9258036017417908,
        -0.9514288306236267,
        -0.8835466504096985,
        1.0
      ],
      "type": "VEC4"
    },
    {
      "bufferView": 1,
      "byteOffset": 64688,
      "componentType": 5126,
      "count": 2488,
      "max": [
        2.221179962158203,
        2.253740072250366
      ],
      "min": [
        -1.235610008239746,
        -1.2537399530410767
      ],
      "type": "VEC2"
    },
    {
      "bufferView": 0,
      "byteOffset": 161520,
      "componentType": 5125,
      "count": 8952,
      "type": "SCALAR"
    }
  ],
  "asset": {
    "extras": {
      "author": "bobbyrazo (https://sketchfab.com/bobbyrazo)",
      "license": "CC-BY-4.0 (http://creativecommons.org/licenses/by/4.0/)",
      "source": "https://sketchfab.com/3d-models/portal-cube-b67becc862054d9fab781b3e4030a1af",
      "title": "Portal Cube"
    },
    "generator": "Sketchfab-12.66.0",
    "version": "2.0"
  },
  "bufferViews": [
    {
      "buffer": 0,
      "byteLength": 197328,
      "name": "floatBufferViews",
      "target": 34963
    },
    {
      "buffer": 0,
      "byteLength": 84592,
      "byteOffset": 197328,
      "byteStride": 8,
      "name": "floatBufferViews",
      "target": 34962
    },
    {
      "buffer": 0,
      "byteLength": 253776,
      "byteOffset": 281920,
      "byteStride": 12,
      "name": "floatBufferViews",
      "target": 34962
    },
    {
      "buffer": 0,
      "byteLength": 94976,
      "byteOffset": 535696,
      "byteStride": 16,
      "name": "floatBufferViews",
      "target": 34962
    }
  ],
  "buffers": [
    {
      "byteLength": 630672,
      "uri": "scene.bin"
    }
  ],
  "images": [
    {
      "uri": "textures/Border_baseColor.jpeg"
    },
    {
      "uri": "textures/Border_metallicRoughness.png"
    },
    {
      "uri": "textures/Border_normal.png"
    },
    {
      "uri": "textures/Heart_baseColor.jpeg"
    },
    {
      "uri": "textures/Main_baseColor.jpeg"
    }
  ],
  "materials": [
    {
      "doubleSided": true,
      "name": "Border",
      "normalTexture": {
        "index": 2
      },
      "pbrMetallicRoughness": {
        "baseColorFactor": [
          0.4712271341,
          0.4712271341,
          0.4712271341,
          1.0
        ],
        "baseColorTexture": {
          "index": 0
        },
        "metallicFactor": 0.0,
        "metallicRoughnessTexture": {
          "index": 1
        }
      }
    },
    {
      "doubleSided": true,
      "name": "Heart",
      "pbrMetallicRoughness": {
        "baseColorTexture": {
          "index": 3
        },
        "metallicFactor": 0.0,
        "roughnessFactor": 0.6
      }
    },
    {
      "doubleSided": true,
      "name": "Contour",
      "pbrMetallicRoughness": {
        "baseColorFactor": [
          0.0251868596,
          0.0221738848,
          0.0221738848,
          1.0
        ],
        "metallicFactor": 0.0,
        "roughnessFactor": 0.27
      }
    },
    {
      "alphaMode": "BLEND",
      "doubleSided": true,
      "emissiveFactor": [
        0.05806299194282751,
        0.7503008839428233,
        1.0
      ],
      "name": "Lights",
      "pbrMetallicRoughness": {
        "baseColorFactor": [
          0.10780586249999995,
          0.1234319680659726,
          0.33108273650000003,
          0.9163490853658537
        ],
        "metallicRoughnessTexture": {
          "index": 1
        },
        "roughnessFactor": 0.6724466463414634
      }
    },
    {
      "doubleSided": true,
      "name": "Main",
      "normalTexture": {
        "index": 2
      },
      "pbrMetallicRoughness": {
        "baseColorTexture": {
          "index": 4
        }
      }
    }
  ],
  "meshes": [
    {
      "name": "Cube_0",
      "primitives": [
        {
          "attributes": {
            "NORMAL": 1,
            "POSITION": 0,
            "TANGENT": 2,
            "TEXCOORD_0": 3
          },
          "indices": 4,
          "material": 4,
          "mode": 4
        }
      ]
    },
    {
      "name": "Cube_1",
      "primitives": [
        {
          "attributes": {
            "NORMAL": 6,
            "POSITION": 5,
            "TEXCOORD_0": 7
          },
          "indices": 8,
          "material": 3,
          "mode": 4
        }
      ]
    },
    {
      "name": "Cube.002_0",
      "primitives": [
        {
          "attributes": {
            "NORMAL": 10,
            "POSITION": 9,
            "TANGENT": 11,
            "TEXCOORD_0": 12
          },
          "indices": 13,
          "material": 0,
          "mode": 4
        }
      ]
    },
    {
      "name": "Circle_0",
      "primitives": [
        {
          "attributes": {
            "NORMAL": 15,
            "POSITION": 14,
            "TEXCOORD_0": 16
          },
          "indices": 17,
          "material": 1,
          "mode": 4
        }
      ]
    },
    {
      "name": "Circle_1",
      "primitives": [
        {
          "attributes": {
            "NORMAL": 19,
            "POSITION": 18,
            "TEXCOORD_0": 20
          },
          "indices": 21,
          "material": 2,
          "mode": 4
        }
      ]
    },
    {
      "name": "Circle_2",
      "primitives": [
        {
          "attributes": {
            "NORMAL": 23,
            "POSITION": 22,
            "TEXCOORD_0": 24
          },
          "indices": 25,
          "material": 3,
          "mode": 4
        }
      ]
    },
    {
      "name": "Cube.003_0",
      "primitives": [
        {
          "attributes": {
            "NORMAL": 27,
            "POSITION": 26,
            "TANGENT": 28,
            "TEXCOORD_0": 29
          },
          "indices": 30,
          "material": 0,
          "mode": 4
        }
      ]
    }
  ],
  "nodes": [
    {
      "children": [
        1
      ],
      "matrix": [
        1.0,
        0.0,
        0.0,
        0.0,
        0.0,
        2.220446049250313e-16,
        -1.0,
        0.0,
        0.0,
        1.0,
        2.220446049250313e-16,
        0.0,
        0.0,
        0.0,
        0.0,
        1.0
      ],
      "name": "Sketchfab_model"
    },
    {
      "children": [
        2,
        5,
        7,
        11
      ],
      "name": "Root"
    },
    {
      "children": [
        3,
        4
      ],
      "name": "Cube"
    },
    {
      "mesh": 0,
      "name": "Cube_0"
    },
    {
      "mesh": 1,
      "name": "Cube_1"
    },
    {
      "children": [
        6
      ],
      "name": "Cube.002"
    },
    {
      "mesh": 2,
      "name": "Cube.002_0"
    },
    {
      "children": [
        8,
        9,
        10
      ],
      "name": "Circle"
    },
    {
      "mesh": 3,
      "name": "Circle_0"
    },
    {
      "mesh": 4,
      "name": "Circle_1"
    },
    {
      "mesh": 5,
      "name": "Circle_2"
    },
    {
      "children": [
        12
      ],
      "name": "Cube.003"
    },
    {
      "mesh": 6,
      "name": "Cube.003_0"
    }
  ],
  "samplers": [
    {
      "magFilter": 9729,
      "minFilter": 9987,
      "wrapS": 10497,
      "wrapT": 10497
    }
  ],
  "scene": 0,
  "scenes": [
    {
      "name": "Sketchfab_Scene",
      "nodes": [
        0
      ]
    }
  ],
  "textures": [
    {
      "sampler": 0,
      "source": 0
    },
    {
      "sampler": 0,
      "source": 1
    },
    {
      "sampler": 0,
      "source": 2
    },
    {
      "sampler": 0,
      "source": 3
    },
    {
      "sampler": 0,
      "source": 4
    }
  ]
}
