<?xml version="1.0" standalone="yes"?>
<svg xmlns="http://www.w3.org/2000/svg" width="113" height="128">
<path style="fill:#221325; stroke:none;" d="M0 0L0 128L113 128L113 0L0 0z"/>
<path style="fill:#e9e8e9; stroke:none;" d="M81.6667 0.333336L82.3333 0.666664L81.6667 0.333336M11 1L10 7L11 7L11 2L12 2C12.5099 11.2039 20.8155 9 28 9L60 9C64.0511 9 70.2276 7.88187 73.8519 10.0278C79.0955 13.1326 79.5981 39.0145 73.8904 41.3966C68.7644 43.5359 60.491 42 55 42L13 42C10.4735 61.9912 12 82.8489 12 103C12 107.677 9.75114 120.743 13.7423 123.972C18.3254 127.68 33.2383 125 39 125C62.1454 125 85.9291 123.412 109 125L110 93L110 28L109 28L109 124L108 124L108 60L107 26L109 27L109 26L103 20L100 20C99.3498 16.3501 94.6509 11.598 91 11L90 10L91 8L88 8C86.4893 -0.724472 75.8116 1 69 1C49.8218 1 30.1147 2.31528 11 1z"/>
<path style="fill:#221325; stroke:none;" d="M11 2L11 7L12 7L11 2M83 2L88 7L83 2z"/>
<path style="fill:#8c7094; stroke:none;" d="M10 7L11 8L10 7z"/>
<path style="fill:#01ff01; stroke:none;" d="M11 7L12 8L11 7z"/>
<path style="fill:#221325; stroke:none;" d="M88 7L90 9L88 7z"/>
<path style="fill:#8c7094; stroke:none;" d="M89 7L90 8L89 7M13 9L13 10L54 10C59.1447 10 67.074 8.51734 71.8519 10.6034C76.916 12.8144 77.1344 36.0012 72.6821 38.9722C68.7872 41.5713 60.5026 40 56 40L12 40C16.0774 43.089 22.059 42 27 42L61 42C64.9842 42 72.1334 43.3503 75.5656 40.9722C79.1645 38.4787 78.5815 13.7883 75.3966 10.6034C72.13 7.33681 63.2406 9 59 9L13 9M84 9L84 12L85 12L84 9z"/>
<path style="fill:#221325; stroke:none;" d="M90 9L92 11L90 9z"/>
<path style="fill:#8c7094; stroke:none;" d="M91 9L92 10L91 9z"/>
<path style="fill:#221325; stroke:none;" d="M92 11L95 14L92 11M95 14L98 17L95 14z"/>
<path style="fill:#8c7094; stroke:none;" d="M96 14L97 15L96 14M97 15L98 16L97 15M17 16C15.4013 21.4085 17.5985 27.9129 12 31L12 32C18.6234 29.9893 17 22.7237 17 17L19 17L19 30L20 30L19 16L17 16M24 16L25 35L26 35L25 17L35 19L24 16M38 30L39 30C37.6697 21.7954 41.8339 17.4246 50 17C41.1895 13.4148 36.2718 22.4577 38 30z"/>
<path style="fill:#e9e8e9; stroke:none;" d="M17 17C17 23.737 17.426 28.3467 12 33C20.9101 34.2739 19 22.9502 19 17L17 17M25 17L25 34L27 34C27.5745 26.4688 43.1613 17.1644 25 17M52 25L46 25L46 26L50 27L50 31C38.5055 33.1134 39.5252 19.2776 51 19L51 17C48.6888 17.0207 46.2671 16.9074 44.0417 17.6528C27.3631 23.239 51.76 45.2476 52 25z"/>
<path style="fill:#8c7094; stroke:none;" d="M51 17L44 19L44 20C46.5721 19.9983 52.4584 20.8687 51 17z"/>
<path style="fill:#221325; stroke:none;" d="M98 17L100 19L98 17z"/>
<path style="fill:#8c7094; stroke:none;" d="M27 19L27 26L32 25L32 24L28 25L27 19z"/>
<path style="fill:#221325; stroke:none;" d="M28 19L28 25C32.2031 23.5891 31.5133 20.9498 28 19z"/>
<path style="fill:#8c7094; stroke:none;" d="M30 19L32 21L32 19L30 19z"/>
<path style="fill:#221325; stroke:none;" d="M100 19L102 21L100 19z"/>
<path style="fill:#8c7094; stroke:none;" d="M101 19L102 20L101 19M35 20L35 24L36 24L35 20M42 20L42 22L44 20L42 20M32.3333 21.6667L32.6667 22.3333L32.3333 21.6667z"/>
<path style="fill:#221325; stroke:none;" d="M102 21L107 26L102 21z"/>
<path style="fill:#8c7094; stroke:none;" d="M103 21L104 22L103 21M41 22L41 25L42 25L41 22M102 22L103 23L102 22M104 22L105 23L104 22M85 23L85 25L101 25L85 23M103 23L104 24L103 23z"/>
<path style="fill:#e9e8e9; stroke:none;" d="M105 23L106 24L105 23z"/>
<path style="fill:#8c7094; stroke:none;" d="M45 24L45 27L49 27L49 26L46 26L46 25L52 25L45 24M104 24L105 25L104 24M106 24L107 25L106 24M34 25L35 26L34 25M52 25C51.8746 28.8776 51.4984 31.0718 48 33L48 34C52.9463 33.1745 53.8379 29.3908 52 25M33 26L34 27L33 26M41 26L41 29L42 29L41 26z"/>
<path style="fill:#221325; stroke:none;" d="M107 26C112.729 56.8587 108 92.6016 108 124L109 124L109 54C109 46.0995 111.566 32.6839 107 26z"/>
<path style="fill:#8c7094; stroke:none;" d="M28 27L28 28L32 28L28 27M49.3333 27.6667L49.6667 28.3333L49.3333 27.6667M108 27L109 28L108 27M27 28L27 34L28 34L27 28M42 29L42 31L44 31L42 29M49 30L50 31L49 30M18 31L19 32L18 31M39 31L40 32L39 31M44 31L44 32L49 32L44 31M107 31L108 32L107 31M17 32L18 33L17 32M40 32L40 33L44 34L44 33L40 32M12 33L13 34L12 33M16 33L17 34L16 33M44 34L44 35L48 35L44 34M10 42L11 43L10 42M12 42L13 43L12 42z"/>
<path style="fill:#e9e8e9; stroke:none;" d="M10 43L10 124L11 124L11 68L10 43z"/>
<path style="fill:#8c7094; stroke:none;" d="M35 50L35 114L36 114L36 70L35 50z"/>
<path style="fill:#221325; stroke:none;" d="M36 50L36 114L41 114C45.1004 100.128 42 81.4714 42 67L43 67L47 80L52 78L53 113L59 113C61.3835 105.148 74.3377 108 81 108L82 114L88 113L88 61L71 60L73 51L67 50C63.7922 58.3624 62.1248 59.999 53 60L53 77C48.6313 72.0442 49.8472 63.6254 42 63L42 50L36 50z"/>
<path style="fill:#8c7094; stroke:none;" d="M66 50L67 51L66 50M69 50L69 51L73 51L69 50M42 51L42 63L43 63L42 51M65 52L65 55L66 55L65 52M72 52L72 55L73 55L72 52M64.3333 56.6667L64.6667 57.3333L64.3333 56.6667M71.3333 56.6667L71.6667 57.3333L71.3333 56.6667M63 59L64 60L63 59M52 60L51 77C54.5288 73.9164 53.7184 64.0951 52 60M87 60L88 61L87 60M44 62L44 63L47 63L44 62M87.3333 62.6667L87.6667 63.3333L87.3333 62.6667M28 64L28 65L33 65L33 73L34 73L34 64L28 64M47 64L48 65L47 64z"/>
<path style="fill:#221325; stroke:none;" d="M28 65C27.9835 70.985 23.1057 82.6816 31 84L33 65L28 65z"/>
<path style="fill:#8c7094; stroke:none;" d="M48.3333 66.6667L48.6667 67.3333L48.3333 66.6667M59 66L59 81L81 81L81 80L60 80L60 67L81 67L59 66M42 67L43 71L44 71L42 67z"/>
<path style="fill:#e9e8e9; stroke:none;" d="M60 67L60 80L81 80L81 67L60 67z"/>
<path style="fill:#8c7094; stroke:none;" d="M27 68L27 74L28 74L27 68M49.3333 69.6667L49.6667 70.3333L49.3333 69.6667M42 72L42 113L43 113C43 101.304 46.5108 82.7499 42 72M44.3333 72.6667L44.6667 73.3333L44.3333 72.6667M50.3333 72.6667L50.6667 73.3333L50.3333 72.6667M26 76L26 79L27 79L26 76M32 76L32 79L33 79L32 76M45.3333 76.6667L45.6667 77.3333L45.3333 76.6667M51 78L52 79L51 78M46 79L47 80L46 79M48.6667 79.3333L49.3333 79.6667L48.6667 79.3333M52 79L52 114L59 114L59 113L53 113L52 79M25 81L27 84L25 81M31 81L31 84L32 84L31 81M28 84L28 85L31 85L28 84M59 87L59 102L60 102L59 87z"/>
<path style="fill:#e9e8e9; stroke:none;" d="M60 87L60 102L81 102L81 87L60 87z"/>
<path style="fill:#8c7094; stroke:none;" d="M60 108L60 109L81 109L60 108M59 109L59 113L60 113L59 109M37 113L37 114L40 114L37 113M41 113L42 114L41 113M81 113L82 114L81 113M83 113L83 114L88 114L83 113z"/>
<path style="fill:#0101ff; stroke:none;" d="M12 123L13 124L12 123z"/>
<path style="fill:#e9e8e9; stroke:none;" d="M11 124L12 125L11 124z"/>
<path style="fill:#8c7094; stroke:none;" d="M107 124L108 125L107 124z"/>
<path style="fill:#e9e8e9; stroke:none;" d="M13 126L13 127L107 127L78 126L13 126z"/>
</svg>
